<svg width="191" height="43" viewBox="0 0 191 43" fill="none" xmlns="http://www.w3.org/2000/svg">
<path d="M20.055 4.29347C18.0972 4.58328 16.8694 5.01463 15.5801 5.85037C13.9976 6.88156 13.0562 8.05429 12.7765 9.32137C12.4355 10.9052 13.3018 12.7991 14.7002 13.527C16.7807 14.6054 19.1955 14.0325 20.3892 12.1723C20.9827 11.2422 21.1123 10.083 20.744 9.06526C20.1096 7.34661 20.1232 7.40053 20.1232 6.84112C20.1232 5.93125 20.4165 5.13595 20.9895 4.50915L21.2283 4.24629L20.7303 4.25303C20.4506 4.25977 20.1505 4.27325 20.055 4.29347Z" fill="#F6F6F6"/>
<path d="M29.8642 4.29325C29.8506 4.32695 29.8574 9.89404 29.8779 16.681L29.912 29.0149L32.968 29.0351L36.0171 29.0486V16.6473V4.24608H32.9543C31.2626 4.24608 29.8779 4.26629 29.8642 4.29325Z" fill="#F6F6F6"/>
<path d="M38.3364 5.82339C38.3364 5.90427 38.4115 5.93123 38.6502 5.93123C39.7348 5.93123 41.8699 6.63891 43.0705 7.40051C45.458 8.91023 47.2861 11.532 47.8523 14.2549C48.0092 15.0098 48.0638 16.4184 47.9615 17.2069C47.4908 20.8869 44.9259 24.1759 41.4061 25.6115C40.6352 25.9283 39.0254 26.2855 38.391 26.2855C38.3569 26.2855 38.3364 26.3326 38.3364 26.3933C38.3364 26.4877 38.6843 26.4944 42.0746 26.4674C45.0965 26.4405 45.9082 26.4135 46.3448 26.3259C49.1075 25.7867 51.0379 24.7218 52.8524 22.7471C55.2126 20.1792 56.0449 16.2431 54.9125 12.9743C53.6778 9.37528 50.7446 6.83437 46.7609 5.91101C46.1811 5.78296 45.9219 5.76948 42.2451 5.74926C38.7457 5.7223 38.3364 5.73578 38.3364 5.82339Z" fill="#F6F6F6"/>
<path d="M17.0945 16.789C13.9976 17.1125 11.535 18.6289 10.6687 20.7452C10.3345 21.5607 10.2662 21.9517 10.2731 22.9491C10.2799 23.6905 10.3072 24.0073 10.4231 24.4319C11.0848 26.838 13.0971 28.341 16.4055 28.8937C16.8694 28.9745 17.7766 29.0015 20.1232 29.0285L23.227 29.0554L22.5653 28.7252C21.6649 28.2669 21.3374 28.0377 20.6962 27.4042C19.4684 26.1843 18.8612 24.843 18.7794 23.1513C18.6975 21.3653 19.3046 19.7814 20.5666 18.4739C21.2351 17.7865 21.7467 17.4158 22.5857 17.0181L23.227 16.7148L20.4302 16.7283C18.8954 16.7283 17.3878 16.7553 17.0945 16.789Z" fill="#F6F6F6"/>
<path d="M112.806 17.8335C112.779 17.8605 112.758 18.1031 112.758 18.366V18.8513L112.199 18.8984C111.885 18.9254 111.373 18.9928 111.053 19.0467C108.945 19.4039 107.513 20.4621 106.98 22.0661C106.83 22.5245 106.803 22.7334 106.803 23.3871C106.803 24.8295 107.226 25.7933 108.242 26.6357C109.15 27.3973 110.391 27.8219 112.11 27.9567L112.724 28.0039L112.758 28.5094L112.792 29.0149H113.168H113.543L113.577 28.5094L113.611 28.0039L114.259 27.9567C117.247 27.7276 119.157 26.3796 119.511 24.2498C119.662 23.3063 119.539 22.2953 119.164 21.5135C118.829 20.8193 118.031 20.0712 117.192 19.66C116.401 19.2759 115.507 19.04 114.409 18.9321L113.584 18.8513L113.563 18.339L113.543 17.8268L113.202 17.8066C113.011 17.7931 112.833 17.8066 112.806 17.8335ZM112.758 23.4613V27.3771L112.301 27.3299C110.227 27.1277 108.897 26.4942 108.113 25.3417C107.704 24.7419 107.506 23.6972 107.635 22.8412C107.854 21.4326 108.89 20.361 110.487 19.8824C111.135 19.687 111.878 19.5589 112.369 19.5522L112.758 19.5455V23.4613ZM114.771 19.6466C117.335 20.0577 118.747 21.3787 118.754 23.3871C118.761 24.4588 118.413 25.2743 117.663 25.982C116.878 26.7099 115.807 27.1277 114.293 27.2895C113.959 27.3232 113.659 27.3367 113.631 27.3232C113.597 27.303 113.577 25.5439 113.577 23.4141V19.5455H113.85C114 19.5455 114.416 19.5926 114.771 19.6466Z" fill="#F6F6F6"/>
<path d="M157.404 18.1571C155.031 18.5413 153.339 19.9971 152.759 22.1403C152.595 22.7739 152.589 24.1151 152.759 24.7352C153.312 26.7841 155.092 28.3679 157.234 28.7049C157.95 28.8195 159.164 28.7925 159.887 28.6443C161.136 28.3949 162.37 27.64 163.141 26.6695C163.926 25.6855 164.219 24.8026 164.219 23.4546C164.226 22.0999 163.939 21.2305 163.155 20.1993C161.995 18.6626 159.567 17.8066 157.404 18.1571ZM159.253 18.8783C160.406 19.0333 161.409 19.5522 162.207 20.3947C163.019 21.2574 163.373 22.174 163.373 23.4344C163.373 24.6004 163.087 25.4226 162.377 26.2921C162.009 26.7504 161.375 27.2693 160.883 27.512C158.796 28.5701 156.081 28.1051 154.58 26.4403C154.157 25.9753 153.653 24.9913 153.544 24.4184C153.414 23.7377 153.489 22.511 153.7 21.9179C154.471 19.7814 156.75 18.5345 159.253 18.8783Z" fill="#F6F6F6"/>
<path d="M67.0069 18.211C66.9319 18.3054 63.7121 24.843 63.7121 24.9037C63.7121 24.9104 63.3711 25.6114 62.955 26.4606C62.5389 27.3098 62.1228 28.1657 62.0409 28.3545L61.8772 28.7117H62.3206H62.764L63.2619 27.6805C63.5348 27.1211 63.8622 26.4538 63.9782 26.1977L64.2033 25.7462H67.423H70.6427L71.3726 27.2289L72.0957 28.7117H72.505C72.7642 28.7117 72.9211 28.6847 72.9211 28.6375C72.9211 28.5634 72.1298 26.9121 69.6741 21.8708C69.1284 20.7587 68.494 19.4714 68.262 19.0063L67.8391 18.1639L67.4571 18.1436C67.2047 18.1302 67.0546 18.1504 67.0069 18.211ZM67.8732 19.9634C68.0915 20.4217 68.7327 21.7494 69.2921 22.9154L70.3153 25.0385L68.8964 25.0587C68.112 25.0654 66.8091 25.0654 66.0041 25.0587L64.5307 25.0385L65.9496 22.0932C66.7272 20.4756 67.3889 19.1479 67.4162 19.1411C67.4503 19.1411 67.6549 19.5118 67.8732 19.9634Z" fill="#F6F6F6"/>
<path d="M88.4808 23.4008L88.508 28.6781L88.8559 28.6983C89.2038 28.7185 89.2107 28.7118 89.5313 28.3613C89.886 27.9704 91.3389 26.218 92.8669 24.3241C93.092 24.0478 93.474 23.5828 93.7264 23.2862C93.972 22.9897 94.5314 22.3224 94.9611 21.7967C96.6119 19.7883 96.762 19.613 96.8097 19.613C96.837 19.613 96.8643 21.6619 96.8643 24.1624V28.7185L97.2599 28.6983L97.6488 28.6781L97.6692 23.4615C97.6829 19.2895 97.6692 18.2314 97.601 18.1842C97.4646 18.1033 97.0417 18.1235 96.912 18.2111C96.8507 18.2583 96.5778 18.5751 96.3049 18.9121C96.0321 19.2491 95.3431 20.0848 94.7769 20.7655C93.6446 22.1337 92.1507 23.9535 90.4931 25.9754C89.8996 26.7033 89.388 27.2829 89.3675 27.256C89.3471 27.2357 89.3266 25.1801 89.3266 22.6931V18.164L88.89 18.1437L88.4603 18.1235L88.4808 23.4008Z" fill="#F6F6F6"/>
<path d="M125.248 19.0872C124.996 19.6197 124.341 20.9609 123.795 22.073C121.067 27.6266 120.603 28.5971 120.603 28.6847C120.603 28.6982 120.801 28.7117 121.039 28.7117H121.469L122.104 27.3772C122.445 26.6493 122.772 25.982 122.827 25.8944L122.922 25.7462H126.135H129.341L129.921 26.9391C130.242 27.5996 130.569 28.2668 130.644 28.4219L130.794 28.7117H131.224C131.463 28.7117 131.654 28.6915 131.654 28.6712C131.654 28.6375 129.955 25.1194 127.827 20.7587L126.565 18.1639L126.142 18.1436L125.719 18.1234L125.248 19.0872ZM126.865 20.57C127.24 21.3585 127.759 22.4302 128.011 22.9491C128.57 24.1084 128.993 25.0183 128.993 25.0452C128.993 25.0587 127.704 25.0722 126.128 25.0722C124.539 25.0722 123.263 25.0452 123.263 25.0115C123.263 24.9778 123.864 23.7175 124.6 22.201C125.337 20.6846 125.965 19.377 125.999 19.2894C126.033 19.2085 126.08 19.1411 126.115 19.1411C126.149 19.1411 126.483 19.7882 126.865 20.57Z" fill="#F6F6F6"/>
<path d="M134.021 18.1706C133.966 18.2245 133.959 27.4985 134.014 28.1657L134.062 28.7117H134.423H134.791L134.805 26.2314L134.826 23.7579L136.156 23.7377L137.486 23.7242L139.157 25.6922C140.078 26.7706 141.04 27.8962 141.292 28.186L141.756 28.7117H142.199C142.438 28.7117 142.636 28.6915 142.636 28.6712C142.636 28.5971 141.626 27.3772 138.837 24.0882C138.489 23.677 138.202 23.3198 138.202 23.3063C138.202 23.2457 139.505 21.6686 141.702 19.067C142.063 18.6289 142.363 18.2447 142.363 18.2043C142.363 18.1234 141.626 18.1032 141.504 18.1841C141.435 18.2245 139.805 20.1858 138.107 22.2617C137.806 22.6256 137.513 22.9491 137.445 22.9896C137.261 23.0839 134.976 23.0704 134.873 22.9694C134.812 22.9087 134.791 22.2684 134.791 20.5093V18.1302H134.43C134.225 18.1302 134.048 18.1504 134.021 18.1706Z" fill="#F6F6F6"/>
<path d="M142.773 18.501V18.8716H144.785H146.797V23.7917V28.7185L147.193 28.6983L147.582 28.6781L147.602 23.7715L147.616 18.8716H149.635H151.647L151.627 18.5144L151.606 18.164L147.193 18.1437L142.773 18.1303V18.501Z" fill="#F6F6F6"/>
<path d="M167.316 18.1706C167.282 18.1976 167.261 20.5835 167.261 23.4681V28.7117H167.671H168.08V26.9998V25.2878L170.249 25.2541C172.65 25.2204 173.026 25.1665 173.946 24.7217C174.513 24.4521 175.222 23.7646 175.461 23.2524C175.788 22.565 175.877 21.6349 175.686 20.8328C175.379 19.5657 174.458 18.73 172.923 18.3324C172.391 18.1976 172.139 18.1841 169.854 18.1504C168.482 18.1302 167.343 18.1369 167.316 18.1706ZM172.787 19.0333C173.742 19.3433 174.342 19.7949 174.676 20.4756C174.854 20.8328 174.867 20.9137 174.867 21.736C174.867 22.565 174.861 22.6324 174.676 22.9694C174.274 23.7175 173.544 24.223 172.541 24.4319C172.193 24.506 171.566 24.533 170.079 24.533H168.08V21.6955V18.8581L170.249 18.885C172.084 18.912 172.466 18.9322 172.787 19.0333Z" fill="#F6F6F6"/>
<path d="M178.38 23.4209V28.7117H178.715C179.028 28.7117 179.069 28.6915 179.356 28.3882C179.526 28.2129 179.854 27.8288 180.093 27.5322C180.324 27.2357 180.536 26.9795 180.563 26.9593C180.584 26.9391 180.72 26.7706 180.87 26.5886C181.02 26.3999 181.341 26.009 181.593 25.7125C181.968 25.2609 183.38 23.549 184.82 21.7966C185.011 21.5675 185.488 20.9878 185.877 20.5161C186.266 20.0375 186.614 19.6331 186.641 19.6264C186.675 19.6129 186.703 21.6146 186.703 24.1556V28.7117H187.112H187.521V24.7689C187.528 22.5987 187.528 20.5093 187.528 20.1184C187.528 19.7275 187.528 19.1209 187.521 18.7704V18.1302H187.18C186.771 18.1302 186.928 17.9751 185.052 20.2599C181.873 24.1353 181.3 24.8295 180.29 26.0494L179.233 27.33L179.199 22.7469L179.165 18.1639L178.776 18.1436L178.38 18.1234V23.4209Z" fill="#F6F6F6"/>
<path d="M75.3086 23.4546V28.7117H75.6837H76.0589L76.0726 23.8051L76.093 18.9052L79.8653 18.885L83.6307 18.8715L83.6375 22.7941C83.6375 24.9576 83.6444 26.8447 83.658 26.993C83.6648 27.1413 83.6785 27.5861 83.6853 27.9838L83.6989 28.7117H84.1082H84.5175V23.4546V18.1976H79.913H75.3086V23.4546Z" fill="#F6F6F6"/>
<path d="M100.643 24.3578C100.623 24.405 100.616 24.5803 100.63 24.742L100.65 25.0386L102.785 25.0588L104.92 25.0723L104.9 24.6881L104.879 24.2972L102.778 24.277C101.032 24.2635 100.677 24.277 100.643 24.3578Z" fill="#F6F6F6"/>
</svg>
