<svg width="59" height="73" viewBox="0 0 59 73" fill="36332F50" xmlns="http://www.w3.org/2000/svg">
<path d="M26.9062 42.0117H18.1523C17.9804 42.0117 17.8154 42.08 17.6938 42.2016C17.5722 42.3232 17.5039 42.4882 17.5039 42.6602V46.5508C17.5039 46.7228 17.5722 46.8877 17.6938 47.0093C17.8154 47.1309 17.9804 47.1992 18.1523 47.1992H26.9062V55.9531C26.9062 56.1251 26.9746 56.29 27.0962 56.4116C27.2178 56.5332 27.3827 56.6016 27.5547 56.6016H31.4453C31.6173 56.6016 31.7822 56.5332 31.9038 56.4116C32.0254 56.29 32.0938 56.1251 32.0938 55.9531V47.1992H40.8477C41.0196 47.1992 41.1846 47.1309 41.3062 47.0093C41.4278 46.8877 41.4961 46.7228 41.4961 46.5508V42.6602C41.4961 42.4882 41.4278 42.3232 41.3062 42.2016C41.1846 42.08 41.0196 42.0117 40.8477 42.0117H32.0938V33.2578C32.0938 33.0858 32.0254 32.9209 31.9038 32.7993C31.7822 32.6777 31.6173 32.6094 31.4453 32.6094H27.5547C27.3827 32.6094 27.2178 32.6777 27.0962 32.7993C26.9746 32.9209 26.9062 33.0858 26.9062 33.2578V42.0117ZM57.2693 18.4005C57.7557 18.8868 58.0312 19.5434 58.0312 20.2323V70.2188C58.0312 71.6534 56.8722 72.8125 55.4375 72.8125H3.5625C2.12783 72.8125 0.96875 71.6534 0.96875 70.2188V2.78125C0.96875 1.34658 2.12783 0.1875 3.5625 0.1875H37.9864C38.6754 0.1875 39.34 0.463086 39.8264 0.949414L57.2693 18.4005ZM52.0494 21.4238L36.7949 6.16934V21.4238H52.0494Z" fill="#36332F" fill-opacity="0.5"/>
</svg>
