<svg width="110" height="61" viewBox="0 0 110 61" fill="none" xmlns="http://www.w3.org/2000/svg">
<path d="M47.7416 0.116001C47.7084 0.198859 47.725 13.887 47.7748 30.5746L47.858 60.9006L55.305 60.9503L62.7353 60.9834V0H55.2717C51.1493 0 47.7748 0.0497147 47.7416 0.116001Z" fill="#36332F"/>
<path d="M23.8381 0.116011C19.0674 0.828589 16.0753 1.88917 12.9336 3.94405C9.07711 6.4795 6.78317 9.36295 6.10163 12.4784C5.2705 16.3727 7.38159 21.0293 10.7893 22.8191C15.8592 25.4705 21.7437 24.0619 24.6526 19.4882C26.0988 17.2013 26.4146 14.351 25.517 11.8487L25.3846 11.4867C24.3388 8.62893 24.085 7.93539 24.0237 7.22497C24.004 6.99742 24.0042 6.76813 24.0043 6.46543L24.0043 6.38007C24.0043 4.14291 24.7191 2.18746 26.1154 0.646302L26.6972 1.10021e-05L25.4838 0.0165819C24.8022 0.0331534 24.0708 0.0662966 23.8381 0.116011Z" fill="#36332F"/>
<path d="M69.1517 4.14291C68.5699 4.14291 68.3871 4.07662 68.3871 3.87776C68.3871 3.66233 69.3844 3.62919 77.9119 3.69548C86.8716 3.74519 87.5032 3.77833 88.9162 4.09319C98.6239 6.3635 105.772 12.611 108.78 21.4602C111.54 29.4974 109.512 39.1752 103.76 45.489C99.3386 50.3445 94.6344 52.9628 87.9022 54.2885C86.8383 54.5039 84.8602 54.5702 77.4963 54.6365C69.2348 54.7028 68.3871 54.6862 68.3871 54.4542C68.3871 54.3051 68.4369 54.1891 68.52 54.1891C70.066 54.1891 73.9889 53.3108 75.8673 52.5319C84.4446 49.0022 90.6948 40.9152 91.8418 31.8672C92.0911 29.9283 91.9581 26.4648 91.5758 24.6088C90.1961 17.9139 85.7412 11.4675 79.9233 7.75551C76.9977 5.88292 71.7947 4.14291 69.1517 4.14291Z" fill="#36332F"/>
<path d="M16.6239 30.8397C9.07712 31.6352 3.0763 35.3638 0.965213 40.5672C0.150698 42.5724 -0.0155297 43.5336 0.00109307 45.9861C0.0177159 47.809 0.0842066 48.5879 0.366794 49.6319C1.9792 55.548 6.88292 59.2434 14.945 60.6023C16.0753 60.8011 18.2861 60.8674 24.0044 60.9337L31.5677 61L29.9553 60.188C27.7611 59.0611 26.9632 58.4977 25.4007 56.94C22.4086 53.9405 20.9291 50.6428 20.7297 46.4833C20.5302 42.0918 22.0096 38.1975 25.0848 34.9826C26.7139 33.2923 27.9606 32.3809 30.0052 31.4032L31.5677 30.6574L24.7524 30.6906C21.0123 30.6906 17.3386 30.7569 16.6239 30.8397Z" fill="#36332F"/>
</svg>
