<?xml version="1.0" standalone="no"?>
<!DOCTYPE svg PUBLIC "-//W3C//DTD SVG 20010904//EN"
 "http://www.w3.org/TR/2001/REC-SVG-20010904/DTD/svg10.dtd">
<svg version="1.0" xmlns="http://www.w3.org/2000/svg"
 width="4272.000000pt" height="2880.000000pt" viewBox="0 0 4272.000000 2880.000000"
 preserveAspectRatio="xMidYMid meet">

<g transform="translate(0.000000,2880.000000) scale(0.100000,-0.100000)"
fill="#37332E" stroke="none">
<path d="M12688 27264 c29 -13 7 -22 -70 -29 -46 -4 -127 -7 -180 -6 -54 0
-98 -3 -98 -7 0 -5 -78 -16 -172 -26 -432 -44 -822 -119 -1232 -237 -773 -223
-1547 -594 -2151 -1030 -114 -83 -116 -84 -109 -65 4 9 1 16 -6 16 -13 0 -47
-33 -102 -100 -31 -37 -39 -42 -48 -30 -10 15 -43 -15 -173 -158 -65 -71 -175
-160 -152 -122 16 25 -15 6 -55 -35 -24 -25 -52 -45 -61 -45 -21 0 -151 -139
-143 -152 4 -6 -19 -36 -51 -68 -32 -33 -54 -63 -51 -69 8 -12 -62 -100 -79
-101 -6 0 -35 -26 -66 -57 -68 -72 -110 -122 -86 -104 32 25 31 2 -1 -42 -270
-365 -431 -661 -547 -1012 -74 -222 -135 -526 -135 -671 0 -20 -7 -42 -15 -50
-20 -21 -22 -189 -1 -201 9 -6 15 -40 19 -113 17 -296 113 -681 247 -990 32
-74 46 -118 40 -124 -26 -26 7 -102 40 -93 13 3 31 -22 81 -116 65 -124 152
-253 222 -333 43 -49 43 -67 0 -39 -54 36 35 -63 232 -257 188 -186 242 -231
169 -143 -20 25 -34 48 -31 51 10 11 126 -98 120 -112 -5 -14 35 -57 91 -97
l31 -22 -18 29 c-10 15 -17 29 -15 31 2 2 62 -36 135 -85 375 -250 789 -389
1283 -430 205 -17 570 -18 660 -2 120 22 301 69 423 111 401 137 673 296 1002
585 30 27 58 46 62 42 4 -4 -20 -35 -53 -69 l-59 -62 70 65 c39 36 81 75 94
85 23 18 24 19 18 2 -6 -17 -5 -17 21 2 49 35 98 93 83 98 -8 4 12 31 60 79
71 71 90 106 35 63 -42 -33 -43 -14 -2 33 206 242 361 495 470 770 106 269
196 674 196 884 0 57 2 64 20 64 16 0 20 7 20 30 0 23 -5 30 -18 30 -17 0 -20
13 -27 123 -4 67 -6 127 -6 132 13 99 13 108 -2 102 -13 -5 -18 6 -27 51 -47
242 -118 466 -260 828 -162 410 -239 664 -261 853 -33 292 -37 405 -14 435 19
25 19 45 0 66 -16 17 -16 10 14 330 11 112 50 308 86 435 102 356 306 728 476
870 75 63 98 93 80 104 -7 5 -1 19 17 41 39 49 36 65 -13 67 -22 1 -34 0 -27
-3z"/>
<path d="M18920 18040 l0 -9200 2160 0 2160 0 0 9200 0 9200 -2160 0 -2160 0
0 -9200z"/>
<path d="M29265 26180 c3 -5 15 -10 26 -10 11 0 17 5 14 10 -3 6 -15 10 -26
10 -11 0 -17 -4 -14 -10z"/>
<path d="M26175 26163 c-93 -2 -415 -7 -713 -11 -498 -7 -545 -9 -557 -25 -17
-23 -30 -21 -43 6 -10 20 -11 18 -11 -19 -1 -28 6 -50 19 -65 l19 -24 1 28 0
28 33 -18 c22 -12 69 -19 154 -24 68 -3 129 -12 137 -18 7 -6 31 -11 52 -11
22 1 51 1 66 1 15 0 108 -12 205 -26 776 -112 1555 -382 2269 -786 296 -168
786 -498 799 -540 3 -9 24 -31 48 -49 70 -55 72 -56 63 -42 -18 30 18 8 56
-35 103 -113 129 -137 137 -124 6 9 30 -7 88 -58 83 -73 123 -121 101 -121
-15 0 35 -53 79 -82 18 -13 33 -28 33 -35 0 -6 21 -29 46 -50 101 -84 124
-106 119 -113 -6 -10 83 -90 99 -90 22 0 284 -274 300 -313 9 -23 53 -76 106
-127 61 -60 88 -94 84 -104 -4 -11 16 -36 60 -77 50 -47 65 -67 60 -81 -4 -14
9 -32 51 -71 87 -79 380 -529 563 -862 354 -648 608 -1311 792 -2071 75 -308
128 -615 114 -667 -3 -14 1 -44 9 -68 14 -40 35 -243 29 -279 -1 -8 3 -51 9
-95 13 -90 19 -785 7 -785 -5 0 -8 -16 -8 -35 0 -19 5 -35 10 -35 6 0 10 -29
10 -66 0 -36 -4 -63 -8 -60 -4 2 -8 -66 -8 -152 -1 -174 -28 -426 -75 -702
-185 -1084 -588 -2112 -1185 -3022 -57 -87 -128 -182 -158 -212 -52 -52 -92
-107 -67 -92 6 4 11 4 11 -1 -1 -13 -27 -43 -38 -43 -5 0 -28 -21 -49 -47 -52
-63 -58 -74 -37 -66 15 6 15 4 -1 -20 -9 -15 -23 -27 -30 -27 -7 0 -31 -21
-52 -47 -48 -58 -61 -79 -43 -68 30 19 -11 -30 -127 -149 -68 -70 -123 -135
-123 -145 0 -18 -145 -171 -162 -171 -5 0 -6 5 -2 11 36 58 -199 -176 -284
-283 -16 -21 -32 -34 -36 -31 -3 4 -22 -9 -42 -28 -39 -37 -85 -97 -66 -85 7
4 12 3 12 -3 0 -13 -56 -52 -64 -44 -3 3 -64 -51 -135 -120 -90 -88 -135 -125
-146 -121 -11 4 -34 -13 -73 -54 -157 -166 -760 -555 -1202 -776 -690 -345
-1330 -540 -2099 -641 -122 -15 -191 -21 -202 -14 -26 14 -56 11 -74 -7 -9 -9
-56 -25 -105 -35 -121 -24 -138 -35 -69 -43 185 -22 3384 -34 4299 -16 667 13
838 27 1240 101 1083 200 2110 628 3015 1254 155 108 172 117 162 92 -5 -14
-3 -16 11 -8 33 19 102 89 102 104 0 16 48 52 57 43 4 -3 -2 -16 -13 -28 l-19
-23 25 20 c47 37 150 139 150 150 0 10 63 65 76 65 3 0 3 -8 0 -17 -6 -15 -4
-14 16 2 56 47 148 141 148 151 0 17 118 117 129 109 6 -3 31 13 55 35 25 23
49 39 54 36 13 -8 272 242 266 257 -2 7 9 26 26 42 32 31 39 48 15 39 -8 -4
-15 -2 -15 3 0 10 113 124 240 243 57 54 72 72 61 79 -11 7 -10 14 8 40 13 17
35 38 49 45 32 17 112 93 112 106 0 6 -7 10 -15 10 -9 0 19 45 74 118 193 255
461 674 607 947 34 63 65 110 74 110 8 0 25 16 38 35 19 29 21 37 9 44 -11 7
-2 35 53 150 262 549 465 1135 595 1716 46 206 79 411 106 662 14 129 27 206
33 205 15 -3 20 74 7 83 -13 7 8 460 21 460 4 0 8 -4 8 -10 0 -5 5 -10 10 -10
6 0 10 23 10 50 0 47 -12 66 -23 38 -3 -7 -6 6 -6 30 -1 28 3 41 12 40 8 -2
12 10 12 37 0 27 -4 39 -12 37 -9 -1 -13 11 -12 35 0 21 3 32 6 26 11 -29 23
-10 23 37 0 47 -12 66 -23 38 -3 -7 -6 6 -6 30 -1 28 3 41 12 40 8 -2 12 10
12 37 0 25 -4 39 -12 38 -13 -3 -19 52 -28 252 -7 141 -22 271 -61 520 -206
1313 -702 2497 -1473 3515 -52 69 -109 143 -128 164 -32 38 -44 64 -23 51 24
-15 6 19 -36 67 -53 60 -85 88 -95 82 -8 -5 -89 86 -89 100 0 4 8 5 17 1 21
-7 -3 20 -121 141 -43 45 -76 87 -72 93 10 15 -278 306 -294 296 -8 -5 -39 18
-89 67 -83 81 -134 123 -92 75 14 -15 22 -30 18 -33 -11 -11 -132 93 -141 123
-3 10 -34 47 -68 83 -48 49 -63 61 -66 48 -2 -10 -7 -18 -11 -18 -16 0 -85 61
-87 77 -4 24 -87 112 -107 113 -5 0 -5 -9 -2 -21 6 -18 5 -20 -14 -10 -11 7
-27 24 -35 39 -18 33 -93 112 -107 112 -6 0 -7 -9 -3 -22 6 -21 5 -21 -14 -8
-135 98 -522 349 -647 420 -644 369 -1511 712 -2153 851 -478 103 -677 131
-1112 155 -74 4 -127 10 -117 12 39 8 13 22 -43 22 -50 0 -58 -2 -53 -16 5
-14 -1 -16 -43 -11 -27 3 -537 11 -1134 18 -597 7 -1086 16 -1088 21 -3 7
-606 8 -1027 1z"/>
<path d="M11135 18020 c3 -5 20 -10 36 -10 18 0 28 4 24 10 -3 6 -20 10 -36
10 -18 0 -28 -4 -24 -10z"/>
<path d="M12118 18022 c-158 -2 -188 -5 -188 -17 0 -13 -45 -15 -317 -17 -762
-5 -928 -9 -1093 -23 -204 -18 -283 -21 -326 -10 -23 5 -35 2 -47 -10 -9 -9
-31 -18 -49 -21 -18 -2 -130 -18 -248 -34 -928 -129 -1789 -416 -2530 -842
-282 -163 -450 -283 -643 -460 -85 -78 -111 -92 -87 -49 18 35 -3 24 -55 -29
-27 -28 -55 -48 -62 -46 -15 6 -225 -213 -217 -226 3 -5 -2 -19 -12 -31 -10
-12 -2 -7 19 12 45 42 62 33 21 -12 -77 -85 -119 -127 -130 -127 -20 0 -166
-163 -153 -171 8 -5 -3 -26 -33 -65 -259 -340 -478 -797 -624 -1304 -52 -180
-118 -497 -136 -646 -7 -68 -16 -104 -24 -104 -25 0 -32 -60 -9 -83 8 -8 12
-17 9 -19 -2 -3 -5 -123 -5 -267 0 -169 -3 -270 -11 -285 -11 -27 -3 -80 12
-71 4 3 11 -21 15 -52 92 -839 310 -1467 697 -2009 56 -79 69 -102 48 -89 -22
13 -8 -16 29 -63 42 -53 87 -92 105 -92 17 0 40 -41 27 -49 -6 -4 7 -27 35
-59 25 -28 42 -56 39 -62 -9 -15 225 -250 255 -255 13 -3 51 -32 85 -65 68
-67 97 -81 41 -20 -20 22 -36 42 -36 45 0 14 23 -1 95 -62 174 -144 485 -362
673 -469 41 -23 79 -52 86 -65 6 -12 24 -32 39 -43 27 -19 29 -20 41 -4 11 15
16 15 57 -9 88 -50 378 -182 539 -246 526 -209 1237 -390 1730 -442 36 -4 70
-11 76 -16 7 -5 29 -9 50 -8 118 4 392 -9 366 -18 -27 -10 2 -23 54 -23 43 0
54 3 54 16 0 14 8 15 53 10 78 -9 1359 -24 2582 -31 l1080 -5 -245 120 c-135
67 -247 125 -249 131 -10 31 -102 88 -148 93 -38 4 -251 148 -306 206 -34 36
-53 49 -66 45 -13 -4 -35 13 -80 61 -41 44 -66 64 -77 60 -10 -4 -56 35 -144
120 -86 84 -133 123 -142 118 -7 -4 -10 -4 -6 1 15 16 -86 129 -108 121 -12
-4 -24 20 -29 57 -3 22 -75 98 -86 91 -4 -2 -34 22 -66 53 -32 32 -82 80 -111
107 -51 47 -109 117 -83 102 28 -17 -9 30 -76 99 -197 203 -512 780 -703 1289
-164 439 -281 1096 -263 1479 4 93 3 127 -5 127 -15 0 -17 146 -3 155 6 3 9
80 9 178 -2 420 124 1059 300 1522 80 210 184 438 212 465 36 35 80 111 85
150 5 41 146 269 297 480 88 125 135 180 188 225 77 63 100 93 81 105 -8 4 7
25 39 58 28 29 55 50 60 47 12 -7 294 257 298 279 3 11 0 16 -7 12 -6 -4 -11
-3 -11 2 0 5 30 38 66 72 45 41 69 58 74 50 5 -8 41 21 107 84 91 87 126 115
107 85 -15 -25 34 12 86 64 102 103 419 292 838 501 l249 124 -583 7 c-520 7
-876 6 -1476 -3z"/>
<path d="M5143 13440 c0 -47 2 -66 4 -42 2 23 2 61 0 85 -2 23 -4 4 -4 -43z"/>
<path d="M24850 10823 c0 -28 3 -34 10 -23 13 20 13 47 0 55 -6 4 -10 -9 -10
-32z"/>
<path d="M26463 10770 c361 -3 953 -3 1315 0 447 4 236 5 -658 5 -894 0 -1105
-1 -657 -5z"/>
<path d="M11162 8873 c-12 -2 -20 -9 -17 -14 8 -12 85 -12 85 0 0 9 -26 22
-38 20 -4 -1 -17 -4 -30 -6z"/>
<path d="M10785 8860 c3 -5 21 -10 40 -10 19 0 37 5 40 10 4 6 -12 10 -40 10
-28 0 -44 -4 -40 -10z"/>
<path d="M10925 8860 c3 -5 37 -10 75 -10 38 0 72 5 75 10 4 6 -23 10 -75 10
-52 0 -79 -4 -75 -10z"/>
<path d="M11938 8853 c7 -3 16 -2 19 1 4 3 -2 6 -13 5 -11 0 -14 -3 -6 -6z"/>
<path d="M12448 8853 c195 -2 510 -2 700 0 191 1 32 2 -353 2 -385 0 -541 -1
-347 -2z"/>
<path d="M16980 5372 c-9 -4 -35 -22 -58 -41 l-42 -34 0 -139 c0 -104 -3 -138
-12 -138 -27 0 -278 -32 -368 -46 -322 -52 -628 -162 -853 -307 -52 -34 -99
-57 -115 -57 -21 0 -47 -20 -113 -87 -139 -143 -169 -180 -169 -208 0 -15 -13
-45 -29 -68 -47 -69 -110 -203 -146 -310 -147 -438 -68 -968 196 -1324 22 -29
39 -63 39 -75 0 -30 20 -60 89 -130 37 -39 63 -58 79 -58 15 0 48 -22 89 -60
50 -46 73 -60 96 -60 17 0 77 -24 136 -54 196 -99 426 -170 706 -216 72 -12
145 -28 163 -36 19 -9 57 -15 90 -14 31 1 72 1 90 1 l32 -1 0 -136 0 -137 42
-43 43 -44 76 0 c68 0 78 2 100 26 23 24 24 33 27 174 4 175 -6 164 141 162
67 -1 99 2 110 12 9 7 77 23 151 35 278 45 533 124 719 222 57 30 107 49 127
49 25 0 45 11 86 49 29 26 63 51 76 55 12 4 63 46 112 94 71 69 90 93 90 115
0 17 19 56 49 100 233 345 308 791 201 1193 -36 136 -87 259 -151 366 -28 47
-49 93 -49 110 0 31 -26 64 -169 211 -75 76 -90 87 -120 87 -24 0 -58 15 -115
52 -232 149 -502 242 -896 308 -102 17 -193 36 -203 41 -11 6 -50 13 -87 16
l-69 6 -3 143 c-3 142 -3 143 -32 173 -26 28 -36 31 -85 30 -31 0 -63 -3 -71
-7z m429 -648 c68 -8 140 -22 160 -31 20 -8 77 -19 126 -23 149 -14 388 -107
559 -217 89 -57 273 -238 332 -326 100 -149 164 -332 170 -492 13 -351 -10
-555 -79 -691 -58 -115 -227 -315 -286 -340 -20 -8 -56 -35 -81 -59 -28 -27
-94 -69 -175 -111 -71 -37 -139 -75 -150 -85 -37 -33 -358 -113 -572 -143 -65
-9 -108 -10 -146 -3 l-54 10 -6 801 c-4 440 -7 1011 -7 1268 l0 468 43 -5 c23
-3 98 -12 166 -21z m-534 -36 c-4 -29 -9 -579 -11 -1223 -2 -643 -3 -1188 -4
-1211 0 -40 -1 -41 -47 -51 -105 -24 -661 87 -728 146 -37 33 -120 80 -250
142 -116 56 -137 70 -197 133 -37 38 -70 81 -73 95 -3 13 -36 53 -72 89 -105
103 -148 230 -166 492 -11 154 -11 176 -3 360 5 131 28 211 104 365 54 110 87
151 226 288 127 125 133 129 269 197 267 133 612 222 891 228 l69 2 -8 -52z"/>
<path d="M30945 5244 c-290 -61 -561 -181 -789 -350 -47 -35 -90 -64 -94 -64
-4 0 -37 -31 -74 -68 -36 -37 -78 -78 -93 -92 -107 -101 -135 -132 -140 -157
-6 -30 -9 -36 -90 -181 -98 -173 -175 -404 -206 -613 -20 -135 -15 -422 10
-561 41 -232 140 -480 270 -676 32 -48 61 -99 64 -113 4 -15 42 -64 84 -110
43 -46 100 -111 128 -143 70 -83 130 -126 173 -126 25 0 58 -15 115 -51 170
-109 389 -196 603 -240 154 -31 522 -39 691 -14 262 38 495 123 704 256 48 31
87 49 106 49 40 0 86 35 218 166 131 129 185 198 185 232 0 14 26 66 59 116
203 314 293 647 278 1031 -13 318 -97 601 -263 876 -19 31 -34 68 -34 81 0 41
-98 158 -132 158 -6 0 -28 20 -50 44 -59 68 -213 197 -308 259 -197 128 -457
232 -705 284 -102 21 -154 25 -355 29 -222 4 -241 3 -355 -22z m645 -293 c177
-15 328 -69 539 -194 86 -51 125 -83 225 -185 67 -68 133 -129 147 -137 52
-28 194 -263 248 -412 44 -118 51 -202 51 -567 1 -438 -8 -488 -128 -720 -47
-91 -146 -238 -166 -245 -6 -2 -55 -47 -109 -100 -54 -53 -104 -98 -110 -100
-7 -2 -39 -29 -72 -60 -106 -100 -336 -201 -576 -252 -144 -31 -493 -34 -644
-5 -140 26 -333 89 -449 147 -100 50 -236 136 -236 149 0 9 -107 115 -186 185
-141 124 -283 417 -339 699 -21 109 -23 141 -20 331 3 170 7 229 25 309 41
188 129 405 220 545 53 81 324 349 413 408 157 103 345 172 557 203 125 19
392 19 610 1z"/>
<path d="M5593 5250 c-276 -3 -505 -9 -510 -13 -17 -17 -25 -1787 -14 -2970 5
-478 8 -579 20 -586 21 -14 154 -23 206 -16 25 4 53 14 60 22 13 12 15 233 15
1639 l0 1624 1171 0 1172 0 -2 -912 c-2 -1065 10 -2305 23 -2331 4 -9 20 -20
35 -22 14 -3 40 -10 56 -15 59 -18 149 -22 168 -8 17 12 17 100 17 1780 0 972
-3 1774 -6 1782 -3 8 -13 18 -23 21 -23 7 -1783 11 -2388 5z"/>
<path d="M9314 5236 c-37 -17 -54 -32 -65 -57 -12 -29 -14 -278 -12 -1704 1
-918 5 -1689 8 -1712 9 -62 24 -73 106 -73 39 0 80 5 92 11 12 7 54 43 93 80
40 38 77 69 83 69 6 0 13 11 17 25 4 16 21 31 49 45 64 31 125 101 125 144 0
30 6 37 43 59 55 32 117 100 117 128 0 12 24 44 60 77 49 47 60 63 60 89 0 27
8 38 53 72 69 50 107 96 107 128 0 30 134 204 188 243 56 40 92 87 92 120 0
24 10 37 53 69 65 48 107 96 107 122 0 12 26 45 60 77 49 47 60 63 60 89 0 27
8 38 53 72 65 48 107 96 107 122 0 12 26 45 60 77 46 44 60 64 60 86 0 20 10
36 31 55 82 68 129 119 129 140 0 14 22 43 60 79 43 41 60 65 60 83 0 16 12
37 32 55 106 98 128 123 128 143 0 14 22 43 60 79 38 37 60 66 60 80 0 14 26
47 74 95 41 39 82 90 92 112 l17 40 8 -75 c4 -41 10 -433 14 -870 18 -1978 19
-2020 34 -2029 21 -14 154 -23 206 -16 25 4 53 14 61 22 22 23 15 3359 -8
3472 -17 87 -32 101 -101 101 -49 0 -51 -1 -132 -85 -57 -58 -90 -85 -106 -85
-30 0 -128 -100 -135 -140 -4 -16 -14 -32 -24 -35 -28 -9 -100 -114 -100 -146
0 -23 -7 -31 -33 -42 -39 -17 -115 -100 -124 -136 -3 -14 -20 -36 -36 -50 -43
-37 -87 -100 -87 -127 0 -17 -12 -31 -39 -48 -45 -29 -109 -101 -117 -132 -3
-12 -30 -47 -60 -78 -31 -32 -57 -69 -60 -86 -4 -16 -14 -35 -23 -43 -71 -61
-132 -131 -137 -157 -4 -16 -14 -32 -23 -35 -25 -7 -91 -98 -102 -139 -7 -24
-20 -41 -38 -51 -40 -20 -111 -104 -118 -137 -3 -15 -13 -30 -22 -33 -25 -7
-91 -98 -102 -139 -7 -26 -20 -41 -44 -54 -36 -18 -115 -113 -115 -138 0 -7
-19 -32 -43 -53 -40 -37 -50 -53 -87 -133 -7 -15 -25 -32 -40 -38 -32 -13
-110 -113 -110 -141 0 -10 -8 -20 -18 -24 -24 -7 -102 -112 -102 -135 0 -17
-52 -70 -69 -70 -13 0 -91 -112 -91 -131 0 -10 -8 -20 -18 -24 -11 -3 -38 -31
-60 -61 l-42 -57 0 49 c2 298 -35 2838 -42 2866 -7 30 -15 39 -36 43 -15 3
-43 10 -63 15 -54 15 -79 12 -135 -14z"/>
<path d="M21049 5237 c-61 -41 -109 -119 -264 -432 -126 -256 -531 -1122 -564
-1207 -5 -12 -137 -302 -294 -643 -537 -1170 -537 -1169 -537 -1206 0 -42 7
-52 47 -73 98 -50 190 4 279 163 51 90 151 303 314 669 l73 162 518 0 c373 0
520 -3 525 -11 5 -8 142 -11 502 -8 l495 4 122 -270 c237 -527 293 -630 372
-690 34 -26 56 -35 85 -35 42 0 108 23 120 43 21 33 1 91 -151 423 -1147 2521
-1366 2980 -1475 3097 -31 33 -40 37 -84 37 -34 0 -59 -7 -83 -23z m138 -524
c184 -357 553 -1167 718 -1576 76 -189 76 -186 -10 -188 -212 -5 -1585 0
-1603 5 -12 4 -22 12 -22 18 0 28 227 557 462 1078 66 146 163 360 215 475
102 226 152 325 163 325 3 0 38 -62 77 -137z"/>
<path d="M23647 5250 c-20 -4 -41 -10 -45 -14 -4 -4 -10 -152 -14 -329 -4
-177 -11 -493 -16 -702 -10 -360 -2 -1342 16 -2188 6 -267 10 -329 21 -337 19
-11 213 -24 245 -16 14 3 30 14 35 25 10 18 12 660 4 1344 l-4 317 408 -1 408
0 43 -54 c23 -30 42 -65 42 -78 0 -32 29 -67 101 -123 47 -36 59 -51 59 -73 0
-36 27 -70 101 -127 47 -36 59 -51 59 -73 0 -36 27 -70 101 -127 47 -36 59
-51 59 -73 0 -36 27 -70 101 -127 42 -32 59 -52 59 -68 0 -29 42 -88 107 -148
28 -25 53 -59 57 -73 4 -15 40 -61 81 -103 40 -41 76 -86 79 -98 9 -34 134
-163 165 -171 14 -3 39 -22 55 -41 17 -19 56 -54 89 -78 52 -39 65 -44 112
-44 60 0 85 17 85 56 0 14 7 32 15 40 23 24 18 67 -14 110 -33 47 -87 94 -107
94 -7 0 -16 12 -20 28 -3 15 -9 37 -14 49 -13 32 -79 102 -111 119 -20 10 -32
27 -39 55 -10 37 -63 98 -141 166 -9 8 -19 27 -23 43 -5 26 -67 96 -137 157
-9 8 -19 27 -23 43 -5 26 -67 96 -137 157 -9 8 -20 28 -23 45 -4 21 -30 54
-80 102 -42 41 -76 83 -80 99 -4 15 -31 53 -61 84 -29 30 -56 66 -59 79 -3 12
-37 56 -75 97 -38 41 -75 85 -81 98 -7 13 -30 48 -52 76 -40 53 -40 53 -23 80
10 16 49 57 86 93 47 44 69 73 69 88 0 15 20 43 60 80 43 41 60 65 60 83 0 16
12 36 30 53 112 103 130 124 130 151 0 18 10 36 31 54 82 68 129 119 129 140
0 14 22 43 60 79 43 41 60 65 60 83 0 16 12 36 30 53 112 103 130 124 130 151
0 18 10 36 31 54 82 68 129 119 129 140 0 14 22 43 60 79 45 43 60 64 60 85 0
15 11 44 23 65 24 38 69 134 65 137 -2 1 -16 11 -32 23 -18 14 -42 22 -65 21
-41 0 -145 -32 -136 -41 11 -10 -115 -122 -152 -134 -40 -14 -38 -12 -87 -77
-20 -27 -36 -57 -36 -67 0 -10 -8 -21 -18 -25 -23 -7 -102 -111 -102 -134 -1
-22 -20 -45 -53 -62 -28 -15 -107 -112 -107 -133 0 -7 -25 -38 -55 -69 -33
-33 -58 -70 -62 -87 -5 -27 -53 -80 -72 -80 -13 0 -91 -111 -91 -130 0 -9 -8
-23 -17 -32 -69 -59 -133 -131 -139 -153 -4 -15 -26 -44 -49 -66 -38 -35 -49
-51 -85 -131 -7 -15 -25 -32 -40 -38 -31 -13 -98 -97 -109 -137 l-7 -28 -350
4 c-308 3 -354 2 -382 -13 -17 -9 -42 -16 -57 -16 l-25 0 0 803 c0 456 -4 808
-9 816 -16 25 -153 37 -234 21z"/>
<path d="M26835 5250 c-494 -5 -490 -5 -514 -57 -14 -30 -14 -133 -1 -168 5
-14 22 -37 36 -50 l27 -25 603 0 604 0 1 -817 c2 -1190 13 -2405 23 -2426 4
-9 20 -20 35 -22 14 -3 40 -10 56 -15 59 -18 149 -22 168 -8 17 12 17 94 17
1651 l0 1637 624 0 c540 0 627 2 639 15 33 32 33 237 1 270 -13 13 -79 15
-442 17 -671 4 -1377 3 -1877 -2z"/>
<path d="M34323 5250 c-127 -3 -235 -9 -240 -13 -4 -5 -11 -153 -15 -330 -4
-177 -12 -457 -18 -622 -13 -354 -4 -1908 11 -1936 5 -10 9 -153 9 -331 0
-172 4 -319 9 -327 10 -16 104 -30 204 -30 46 -1 61 3 79 21 l21 21 -7 563 -6
562 537 5 c558 5 648 10 868 52 162 31 274 68 402 134 55 28 109 51 120 51 38
0 153 101 153 135 0 7 20 25 43 38 62 37 117 100 117 136 0 16 18 64 40 108
50 97 94 232 110 341 7 45 16 82 21 82 14 0 29 71 29 137 0 62 -13 112 -32
124 -5 3 -16 42 -24 87 -7 44 -26 118 -41 164 -17 51 -26 99 -24 125 3 46 -25
105 -59 123 -9 5 -20 23 -24 40 -4 22 -41 67 -123 152 -122 124 -154 148 -198
148 -14 0 -42 11 -63 23 -94 60 -273 125 -427 157 -39 8 -68 21 -82 36 -19 20
-32 24 -83 24 -34 0 -70 -5 -81 -11 -14 -7 -66 -7 -177 2 -171 12 -680 17
-1049 9z m1317 -320 c151 -15 231 -32 324 -69 75 -30 197 -104 205 -125 2 -5
41 -49 85 -96 84 -88 116 -142 154 -260 34 -106 44 -185 44 -370 0 -319 -33
-407 -221 -598 -100 -100 -133 -127 -193 -156 -98 -47 -257 -90 -430 -117
-135 -21 -169 -22 -608 -20 -401 2 -471 0 -510 -13 -25 -9 -62 -16 -82 -16
l-38 0 0 931 0 932 578 -6 c317 -3 629 -11 692 -17z"/>
<path d="M37632 5252 c-39 -5 -66 -13 -72 -22 -6 -9 -10 -407 -10 -1028 0
-557 -3 -1021 -7 -1030 -5 -9 -6 -347 -3 -750 6 -848 -6 -768 112 -759 86 7
107 19 203 117 44 44 98 92 121 105 60 35 114 99 114 135 0 24 10 37 53 69 65
48 107 96 107 122 0 12 26 45 60 77 43 41 60 65 60 83 0 16 12 37 32 55 109
101 128 122 128 145 0 31 118 182 210 269 52 48 70 72 70 91 0 16 11 36 30 53
103 95 130 125 130 145 0 14 22 43 60 79 44 42 60 65 60 84 0 17 11 37 31 55
99 89 129 122 129 142 0 14 22 43 60 79 43 41 60 65 60 83 0 16 12 36 30 53
106 98 130 125 130 147 0 16 17 39 55 72 38 33 58 59 65 86 7 28 28 54 80 100
48 43 72 73 79 97 6 22 27 51 56 76 25 22 55 60 66 84 11 23 49 71 85 106 35
34 67 72 71 83 3 11 22 40 42 64 l36 44 7 -109 c3 -60 4 -280 1 -489 -3 -209
0 -677 6 -1039 8 -457 9 -662 1 -670 -13 -13 -13 -73 0 -81 6 -4 10 -111 10
-288 0 -155 4 -288 9 -296 21 -33 244 -37 277 -4 21 22 21 3519 0 3549 -12 16
-25 19 -87 17 -67 -2 -75 -4 -102 -33 -15 -16 -32 -30 -36 -30 -4 0 -34 -31
-67 -70 -45 -53 -65 -70 -85 -70 -31 0 -149 -117 -149 -148 0 -12 -8 -23 -18
-27 -25 -7 -102 -112 -102 -139 0 -29 -10 -40 -46 -55 -35 -14 -114 -113 -114
-142 0 -10 -8 -20 -18 -24 -23 -7 -102 -111 -102 -134 -1 -22 -20 -45 -53 -62
-28 -15 -107 -112 -107 -133 0 -7 -25 -38 -55 -69 -33 -33 -58 -70 -62 -87 -5
-27 -53 -80 -72 -80 -11 0 -91 -110 -91 -124 0 -7 -25 -37 -55 -68 -30 -31
-57 -70 -61 -85 -4 -16 -38 -58 -80 -98 -40 -39 -75 -82 -79 -96 -4 -15 -31
-52 -61 -83 -32 -33 -57 -69 -61 -86 -5 -27 -53 -80 -72 -80 -13 0 -91 -112
-91 -131 0 -10 -8 -20 -18 -23 -23 -8 -85 -89 -105 -138 -9 -21 -30 -46 -47
-57 -32 -19 -110 -114 -110 -133 0 -6 -18 -29 -41 -51 -22 -22 -52 -61 -67
-86 -14 -25 -56 -79 -94 -119 -37 -39 -68 -76 -68 -81 0 -5 -24 -39 -53 -75
l-54 -65 -7 147 c-3 80 -4 511 -1 957 4 524 2 895 -5 1050 -6 132 -14 362 -19
510 -4 149 -11 278 -15 287 -4 9 -15 19 -23 23 -27 10 -125 13 -191 7z"/>
<path d="M2563 5230 c-65 -39 -122 -131 -268 -425 -139 -282 -362 -759 -550
-1175 -51 -113 -152 -333 -225 -490 -73 -157 -238 -519 -367 -805 -254 -562
-266 -595 -223 -640 41 -44 155 -31 210 24 65 63 152 235 392 769 l73 163 695
-3 c382 -2 841 -2 1020 0 l325 3 144 -318 c242 -534 287 -615 360 -653 68 -34
177 -20 195 25 11 31 6 90 -13 130 -10 22 -80 175 -156 340 -191 415 -227 494
-438 955 -102 223 -222 484 -267 580 -45 96 -132 283 -192 415 -170 370 -372
789 -429 889 -62 109 -130 205 -145 206 -6 0 -17 7 -24 15 -17 21 -79 19 -117
-5z m165 -577 c215 -443 466 -991 639 -1398 124 -289 125 -293 110 -302 -6 -4
-100 -7 -207 -6 -107 1 -198 -1 -203 -4 -14 -8 -708 -9 -713 -1 -3 4 -133 7
-290 6 -170 0 -289 3 -295 9 -6 6 18 71 65 179 166 381 395 891 564 1259 188
409 214 465 222 465 4 0 52 -93 108 -207z"/>
<path d="M13046 3194 c-13 -12 -16 -41 -16 -154 0 -113 3 -142 16 -154 14 -14
90 -16 694 -16 604 0 680 2 694 16 13 12 16 41 16 154 0 113 -3 142 -16 154
-14 14 -90 16 -694 16 -604 0 -680 -2 -694 -16z"/>
</g>
</svg>
