<?xml version="1.0" standalone="no"?>
<!DOCTYPE svg PUBLIC "-//W3C//DTD SVG 20010904//EN"
 "http://www.w3.org/TR/2001/REC-SVG-20010904/DTD/svg10.dtd">
<svg version="1.0" xmlns="http://www.w3.org/2000/svg"
 width="1080.000000pt" height="1453.000000pt" viewBox="0 0 1080.000000 1453.000000"
 preserveAspectRatio="xMidYMid meet">

<g transform="translate(0.000000,1453.000000) scale(0.100000,-0.100000)"
fill="#000000" stroke="none">
<path d="M8940 14107 c-14 -6 -62 -28 -107 -49 -45 -21 -84 -38 -87 -38 -2 0
-78 -35 -168 -78 -955 -459 -1793 -1194 -2422 -2124 -99 -147 -256 -400 -256
-414 0 -3 -8 -18 -19 -32 -21 -31 -173 -327 -213 -417 -123 -274 -229 -569
-212 -584 12 -11 224 -71 250 -71 19 0 28 18 69 138 201 591 583 1232 1079
1812 123 144 494 513 646 641 303 257 638 487 980 674 152 83 140 87 140 -52
1 -370 118 -680 318 -838 31 -26 112 -73 180 -106 159 -76 228 -124 327 -224
90 -90 134 -159 173 -267 22 -63 26 -88 25 -188 0 -97 -5 -129 -29 -205 -51
-164 -43 -252 36 -373 53 -82 142 -168 293 -280 82 -61 127 -101 127 -113 0
-29 -30 -98 -67 -158 -71 -112 -216 -223 -367 -282 -136 -53 -243 -71 -421
-71 -140 0 -180 4 -315 32 -137 27 -294 75 -385 116 -58 26 -320 135 -337 141
-10 3 -18 1 -18 -4 0 -5 40 -94 89 -199 153 -327 223 -555 268 -874 25 -174
25 -648 0 -798 -85 -520 -272 -939 -598 -1342 -114 -140 -168 -227 -269 -435
-226 -463 -377 -976 -452 -1535 -30 -218 -32 -708 -5 -887 35 -231 73 -378
154 -586 25 -64 44 -120 41 -122 -3 -3 -133 -32 -289 -65 -364 -75 -588 -128
-819 -190 -577 -157 -848 -199 -1330 -207 -332 -6 -536 8 -800 53 -227 38
-585 132 -656 172 -13 7 1 20 77 67 166 103 358 238 504 355 28 22 68 54 90
71 88 66 406 376 514 500 433 497 743 1040 940 1644 62 189 145 506 180 685
38 192 46 239 67 390 51 384 49 1116 -5 1510 -24 177 -37 258 -60 370 -5 25
-14 70 -20 100 -26 142 -87 353 -103 364 -14 8 -36 4 -95 -16 -105 -36 -243
-64 -390 -79 -99 -10 -149 -10 -260 0 -478 44 -894 195 -1451 526 -106 63
-285 195 -446 329 -55 46 -43 53 -151 -89 -381 -501 -931 -852 -1520 -969
-242 -48 -418 -56 -610 -27 -66 10 -123 15 -127 12 -12 -11 -28 -454 -28 -759
1 -388 21 -772 60 -1119 5 -51 15 -135 20 -185 11 -97 41 -290 66 -418 7 -41
19 -100 24 -130 6 -30 18 -84 26 -120 8 -36 22 -94 30 -130 19 -84 51 -207 76
-295 27 -90 136 -424 148 -450 5 -11 21 -49 35 -85 14 -36 38 -94 52 -130 35
-87 189 -394 251 -500 113 -194 287 -442 427 -606 59 -69 219 -229 305 -304
33 -29 60 -57 60 -64 0 -24 277 -239 483 -373 l130 -85 -49 -22 c-27 -13 -80
-33 -119 -45 -170 -55 -364 -178 -491 -313 -252 -266 -335 -582 -232 -883 107
-313 419 -581 855 -734 192 -68 345 -104 557 -131 87 -11 168 -22 180 -25 56
-13 552 -29 901 -29 454 0 668 19 945 84 25 6 79 15 120 20 209 28 319 50 345
70 17 13 108 39 160 45 75 9 141 24 225 50 41 13 98 26 125 30 54 7 118 22
150 36 11 4 56 16 100 25 44 9 118 32 165 51 46 18 115 38 152 43 38 6 91 21
119 35 64 33 129 49 329 80 145 23 174 25 240 15 135 -19 183 -29 194 -40 5
-5 18 -10 28 -10 34 0 112 -48 160 -97 90 -92 129 -229 107 -373 -31 -205
-145 -372 -309 -453 -62 -30 -71 -32 -180 -32 -107 0 -121 2 -196 33 -45 18
-119 57 -164 87 -45 31 -86 53 -91 49 -27 -17 -159 -189 -159 -208 0 -15 18
-33 66 -64 36 -24 73 -46 82 -49 9 -4 33 -16 52 -28 20 -13 76 -35 125 -51 85
-27 100 -28 270 -29 170 0 185 2 275 29 218 66 393 253 469 500 66 213 67 372
5 550 -60 171 -194 314 -368 391 -185 82 -455 95 -741 35 -49 -10 -218 -55
-375 -100 -954 -272 -1793 -442 -2345 -475 -119 -7 -559 8 -751 25 -504 46
-931 167 -1209 343 -74 47 -82 54 -176 148 -172 172 -223 357 -158 568 22 68
64 155 104 209 49 67 173 174 255 218 19 10 37 21 40 25 8 8 99 44 150 59 48
13 104 35 132 50 10 6 22 10 27 10 5 0 61 25 126 55 l117 56 86 -32 c48 -18
92 -35 97 -39 6 -4 37 -15 70 -24 60 -18 132 -41 170 -56 46 -17 98 -32 142
-40 27 -5 73 -16 103 -25 77 -24 120 -32 240 -50 263 -39 322 -45 493 -47 261
-4 896 12 937 24 41 11 126 23 259 38 52 6 110 15 130 20 73 20 248 59 315 70
38 6 85 19 105 29 20 10 65 26 101 35 36 10 81 21 100 27 60 15 282 67 345 79
33 7 74 16 90 21 17 5 65 13 107 19 88 12 149 28 228 59 43 18 84 23 190 27
l135 5 128 -125 c71 -69 133 -126 139 -126 6 0 21 -11 34 -25 13 -14 27 -25
32 -25 5 0 27 -12 48 -28 92 -64 197 -113 349 -162 55 -18 109 -36 120 -41 29
-12 274 -39 358 -39 99 0 249 26 289 50 18 10 48 27 66 36 51 26 146 137 185
217 42 87 77 231 77 320 0 221 -142 410 -341 456 -127 30 -411 -3 -1074 -124
-134 -25 -254 -45 -264 -45 -60 0 -187 345 -230 620 -28 184 -33 245 -33 446
1 381 59 793 159 1129 102 344 184 556 305 790 84 163 133 237 235 356 85 99
206 273 265 384 112 208 219 456 258 600 25 90 72 276 80 315 5 25 14 65 19
90 21 88 41 441 37 615 -9 318 -35 516 -98 763 -12 45 -18 85 -15 88 3 3 47
-3 99 -14 51 -11 123 -25 159 -31 86 -14 432 -14 501 0 190 39 228 51 373 120
307 145 525 435 525 698 0 62 -5 96 -18 121 -16 32 -108 109 -253 213 -67 48
-174 151 -201 195 l-20 33 25 92 c48 176 58 288 36 411 -43 238 -132 403 -306
566 -109 101 -213 171 -377 251 -133 64 -168 94 -224 188 -87 148 -127 404
-103 661 12 121 15 145 50 304 31 143 29 150 -29 123z m-5556 -4224 c138 -84
437 -239 546 -283 30 -12 69 -28 85 -35 17 -7 66 -25 110 -40 44 -15 87 -31
96 -36 15 -7 152 -46 249 -70 333 -81 619 -94 972 -42 36 5 37 4 47 -33 23
-89 62 -309 81 -454 32 -246 40 -357 46 -635 18 -734 -103 -1453 -351 -2080
-70 -178 -251 -541 -347 -695 -411 -663 -971 -1193 -1672 -1583 l-119 -66 -69
35 c-605 305 -1139 844 -1486 1502 -225 426 -371 839 -502 1417 -62 274 -123
722 -150 1105 -18 240 -30 749 -23 983 l6 227 93 0 c52 0 124 4 161 10 38 5
120 17 183 25 104 15 150 25 315 70 468 127 980 457 1323 851 l53 62 107 -75
c58 -41 169 -113 246 -160z m5651 -6033 c70 -35 94 -157 55 -281 -30 -95 -76
-151 -156 -190 -61 -30 -75 -33 -153 -33 -270 2 -668 160 -830 328 -31 32 -33
36 -15 42 10 3 33 12 51 20 17 8 37 14 44 14 6 0 60 15 118 34 155 49 194 57
320 63 62 2 150 8 195 13 130 13 336 8 371 -10z"/>
<path d="M3109 9774 c-13 -15 -74 -72 -134 -128 -260 -238 -497 -404 -795
-558 -306 -157 -598 -238 -861 -238 l-117 0 -6 -32 c-23 -116 -38 -379 -39
-658 0 -381 23 -673 80 -1000 8 -47 18 -107 23 -135 4 -27 22 -113 39 -190
169 -756 483 -1426 915 -1952 125 -151 377 -400 530 -522 139 -110 374 -271
396 -271 19 0 157 89 285 184 644 480 1215 1171 1560 1890 184 384 286 688
363 1081 28 140 36 197 62 431 13 117 13 571 0 688 -21 193 -31 273 -41 324
-5 28 -14 78 -19 110 -29 156 -63 284 -77 289 -9 3 -30 1 -47 -5 -66 -24 -230
-34 -363 -23 -132 12 -162 17 -349 57 -341 73 -759 243 -1037 422 -112 73
-159 109 -268 204 -37 32 -69 58 -71 58 -3 0 -15 -12 -29 -26z m104 -162 c373
-301 957 -548 1487 -628 123 -19 379 -25 466 -11 l50 8 22 -98 c28 -127 47
-240 69 -405 22 -168 25 -716 5 -878 -89 -717 -322 -1338 -741 -1970 -192
-290 -394 -534 -670 -811 -186 -186 -258 -250 -431 -390 -98 -79 -315 -229
-331 -229 -11 0 -201 130 -289 199 -144 111 -330 283 -443 409 -647 716 -1022
1649 -1139 2827 -18 180 -17 875 1 1011 l13 101 99 7 c128 9 280 37 411 75
400 117 903 419 1248 749 52 50 96 91 98 92 2 0 36 -26 75 -58z"/>
</g>
</svg>
