<?xml version="1.0" standalone="no"?>
<!DOCTYPE svg PUBLIC "-//W3C//DTD SVG 20010904//EN"
 "http://www.w3.org/TR/2001/REC-SVG-20010904/DTD/svg10.dtd">
<svg version="1.0" xmlns="http://www.w3.org/2000/svg"
 width="1000.000000pt" height="1000.000000pt" viewBox="0 0 1000.000000 1000.000000"
 preserveAspectRatio="xMidYMid meet">

<g transform="translate(0.000000,1000.000000) scale(0.100000,-0.100000)"
fill="#36332f" stroke="none">
<path d="M7067 9840 c-115 -47 -307 -142 -403 -201 -602 -365 -1176 -1058
-1550 -1870 -80 -173 -108 -255 -98 -285 21 -67 56 -94 120 -94 50 0 92 45
133 143 131 318 361 721 576 1011 244 330 553 634 840 825 108 73 277 171 338
196 l37 15 0 -114 c0 -151 21 -261 71 -364 58 -121 127 -186 276 -261 142 -71
193 -113 230 -189 27 -56 28 -62 33 -272 l5 -215 43 -80 c23 -44 66 -111 95
-149 28 -38 56 -74 61 -81 13 -18 -42 -121 -87 -162 -144 -129 -365 -133 -745
-12 -113 36 -148 32 -192 -17 -42 -48 -40 -88 10 -189 93 -192 134 -379 133
-620 0 -338 -100 -660 -312 -1009 -233 -383 -428 -914 -492 -1339 -26 -169
-30 -456 -10 -582 27 -164 61 -276 128 -413 19 -40 33 -76 30 -79 -3 -3 -32
-11 -64 -18 -441 -98 -705 -142 -1083 -182 -235 -25 -812 -25 -990 0 -163 23
-303 49 -313 58 -5 4 13 22 40 40 176 119 447 359 599 530 463 518 714 1074
810 1789 26 190 26 658 0 850 -24 180 -62 377 -92 477 -25 83 -66 142 -102
144 -9 1 -134 2 -277 3 -219 2 -278 5 -375 24 -163 30 -253 55 -372 101 -182
72 -300 144 -488 299 -44 35 -59 42 -97 42 -55 0 -73 -9 -145 -76 -209 -192
-524 -383 -764 -462 -172 -57 -232 -67 -441 -67 -217 -1 -232 -5 -262 -69 -55
-115 -64 -792 -16 -1210 82 -718 298 -1295 673 -1796 161 -215 456 -488 665
-615 42 -25 77 -51 77 -55 0 -5 -87 -52 -193 -103 -171 -84 -198 -100 -242
-149 -65 -71 -120 -176 -145 -274 -91 -354 163 -633 720 -793 258 -74 406 -94
690 -95 389 0 607 34 1322 203 523 125 575 134 768 135 162 1 166 0 223 -27
31 -16 68 -43 81 -60 32 -41 86 -183 86 -223 0 -38 -62 -137 -98 -156 -33 -17
-176 -14 -262 5 -165 38 -230 30 -270 -35 -24 -39 -25 -69 -5 -108 20 -38 61
-59 149 -75 39 -7 98 -19 130 -25 32 -6 113 -10 180 -8 104 3 128 6 171 27 72
36 153 122 200 215 l40 79 0 126 c0 117 -2 130 -28 185 -18 38 -55 87 -108
141 -126 130 -223 171 -424 181 -174 10 -361 -20 -825 -131 -727 -174 -970
-214 -1318 -215 -246 0 -430 27 -660 96 -285 86 -464 199 -523 328 -26 58 -25
146 4 216 36 87 81 145 129 168 192 90 249 118 363 181 l130 72 105 -30 c580
-168 1404 -156 2350 35 129 26 393 88 421 99 11 4 42 -16 95 -61 149 -127 309
-216 511 -284 148 -50 203 -52 259 -12 21 16 69 61 107 101 121 129 167 219
167 325 -1 107 -71 190 -195 229 -63 20 -90 22 -275 21 -198 -1 -234 -4 -520
-50 -34 -5 -36 -3 -71 53 -65 104 -112 229 -140 378 -18 90 -18 423 -1 525 78
457 242 904 469 1279 149 245 255 504 310 758 25 120 27 144 27 368 1 249 -10
338 -60 488 -9 27 -14 50 -12 52 2 2 32 -2 67 -11 152 -35 383 -34 495 2 210
68 353 222 402 432 19 82 6 133 -46 183 -51 49 -106 122 -136 180 -22 45 -24
59 -24 201 -1 267 -41 396 -159 512 -68 68 -101 90 -226 152 -133 66 -184 125
-214 249 -17 69 -15 265 4 353 24 118 21 154 -19 196 -47 50 -97 49 -229 -4z
m-3494 -2554 c326 -264 840 -419 1341 -404 l110 3 13 -50 c68 -261 102 -748
73 -1060 -53 -576 -246 -1091 -574 -1530 -128 -172 -329 -385 -496 -527 -145
-123 -435 -328 -464 -328 -50 0 -307 162 -449 283 -683 581 -1042 1546 -1013
2727 4 151 9 290 13 308 l5 32 82 0 c284 1 622 109 930 298 89 54 276 190 346
251 19 16 36 30 38 31 2 0 22 -15 45 -34z m3770 -3987 c20 -5 37 -14 37 -20 0
-32 -100 -168 -139 -188 -41 -22 -444 161 -415 189 26 24 443 40 517 19z"/>
<path d="M5085 1090 c-317 -64 -486 -404 -345 -695 46 -94 160 -195 270 -239
107 -42 274 -30 392 30 71 36 167 135 201 208 70 148 71 293 2 432 -94 192
-317 305 -520 264z m219 -131 c102 -38 178 -114 217 -218 17 -46 20 -72 17
-146 -6 -111 -30 -168 -105 -243 -77 -78 -145 -106 -258 -106 -81 -1 -97 2
-155 30 -83 40 -145 102 -184 184 -28 58 -31 75 -31 155 0 76 5 99 27 146 85
184 286 268 472 198z"/>
<path d="M6590 1090 c-151 -26 -290 -133 -354 -270 -36 -78 -49 -153 -43 -245
24 -346 403 -553 711 -387 70 37 165 135 199 204 46 96 62 186 48 282 -38 274
-292 463 -561 416z m145 -111 c247 -46 381 -310 268 -532 -37 -74 -98 -133
-172 -169 -59 -29 -76 -32 -156 -33 -81 0 -97 3 -155 31 -83 40 -145 102 -184
184 -28 58 -31 75 -31 155 0 76 5 99 27 146 49 107 137 182 247 211 80 21 83
21 156 7z"/>
<path d="M2380 1025 l0 -55 100 0 100 0 0 -415 0 -415 55 0 55 0 0 415 0 415
94 0 93 0 7 39 c3 22 9 46 12 55 6 14 -21 16 -255 16 l-261 0 0 -55z"/>
<path d="M2950 610 l0 -470 261 0 c243 0 260 1 255 18 -3 9 -8 34 -12 55 l-6
37 -194 0 -194 0 0 205 0 205 119 0 119 0 6 38 c4 20 9 45 12 55 5 16 -6 17
-125 17 l-131 0 0 100 0 100 192 2 193 3 11 53 12 52 -259 0 -259 0 0 -470z"/>
<path d="M3556 1023 c14 -32 34 -78 44 -103 10 -25 29 -70 43 -100 50 -111 87
-199 87 -207 0 -4 -43 -107 -96 -228 -53 -121 -98 -226 -101 -233 -4 -10 8
-12 52 -10 l58 3 70 163 c39 89 73 162 76 162 5 0 38 -70 127 -277 l23 -53 57
0 c41 0 55 3 51 12 -3 7 -27 60 -52 118 -116 262 -146 336 -142 355 3 11 42
103 87 205 45 102 87 200 95 218 l14 32 -57 0 -57 0 -70 -165 c-38 -91 -72
-165 -75 -165 -3 0 -37 73 -75 163 l-70 162 -58 3 -57 3 26 -58z"/>
<path d="M4110 610 l0 -470 55 0 55 0 0 160 0 161 148 -3 147 -3 3 -157 3
-158 54 0 55 0 0 470 0 470 -55 0 -55 0 0 -255 0 -255 -150 0 -150 0 0 255 0
255 -55 0 -55 0 0 -470z"/>
<path d="M5720 610 l0 -470 55 0 55 0 0 212 0 211 33 43 c17 24 35 44 38 44 3
0 55 -115 115 -255 l109 -255 58 0 57 0 -14 33 c-7 17 -46 106 -86 197 -142
327 -161 373 -157 384 3 6 59 80 126 164 66 84 121 154 121 157 0 3 -31 5 -69
5 l-68 0 -104 -132 c-56 -73 -115 -148 -131 -166 l-28 -33 0 166 0 165 -55 0
-55 0 0 -470z"/>
<path d="M7100 1025 l0 -55 100 0 100 0 0 -415 0 -415 55 0 55 0 0 415 0 415
94 0 93 0 7 39 c3 22 9 46 12 55 6 14 -21 16 -255 16 l-261 0 0 -55z"/>
</g>
</svg>
